Coordinates
version=1
nRows=19
nColumns=24
inDegrees=yes

Units are S.I. units (second, meters, Newtons, ...)
Angles are in degrees.

endheader
time	pelvis_tilt	pelvis_list	pelvis_rotation	pelvis_tx	pelvis_ty	pelvis_tz	hip_flexion_r	hip_adduction_r	hip_rotation_r	knee_angle_r	ankle_angle_r	subtalar_angle_r	mtp_angle_r	hip_flexion_l	hip_adduction_l	hip_rotation_l	knee_angle_l	ankle_angle_l	subtalar_angle_l	mtp_angle_l	lumbar_extension	lumbar_bending	lumbar_rotation
      5.83500000	     13.70526383	     -4.98591922	     13.92769231	      0.35372173	      0.93746354	     -0.25974241	     -9.49787929	     12.97760328	     -3.74544487	     -9.08007421	     20.38111813	     -6.13622420	      0.00000000	      1.92485172	     -7.21447197	      9.45676047	    -64.54499395	     15.23521125	     -2.41179693	      0.00000000	    -26.98545820	      9.50943993	     -9.67349890
      5.84000000	     13.67661452	     -4.74534618	     13.59350803	      0.35925131	      0.93797924	     -0.25931575	    -10.06437997	     12.75787160	     -3.54734351	     -8.79887162	     20.54850144	     -5.93557145	      0.00000000	      2.52672282	     -6.69434191	      9.34104388	    -64.11925128	     15.65551200	     -2.54831511	      0.00000000	    -27.06844163	      9.12000152	     -9.33836532
      5.84500000	     13.60861060	     -4.52351458	     13.33657895	      0.36476486	      0.93837833	     -0.25897639	    -10.57891463	     12.55892940	     -3.41844749	     -8.50009802	     20.70167822	     -5.77870807	      0.00000000	      3.18802347	     -6.18692715	      9.31231524	    -63.64628098	     16.06116198	     -2.57255863	      0.00000000	    -27.08504615	      8.77846879	     -9.11065247
      5.85000000	     13.59250488	     -4.31546469	     12.93234617	      0.37022622	      0.93881271	     -0.25852299	    -11.13663925	     12.34358701	     -3.20874588	     -8.24777101	     20.90409869	     -5.48354568	      0.00000000	      3.74295084	     -5.71866122	      9.11169173	    -63.06506545	     16.43439047	     -2.70788244	      0.00000000	    -27.19314424	      8.40208766	     -8.67611841
      5.85500000	     13.52296511	     -4.12326937	     12.69764715	      0.37570953	      0.93910039	     -0.25816294	    -11.63547934	     12.17521955	     -3.11178744	     -7.94163869	     21.02401280	     -5.34833926	      0.00000000	      4.39143370	     -5.26468184	      9.09066853	    -62.45268684	     16.80775061	     -2.64817980	      0.00000000	    -27.19907464	      8.08337032	     -8.46295429
      5.86000000	     13.52762783	     -3.93175097	     12.25824336	      0.38115460	      0.93947481	     -0.25774869	    -12.20904774	     11.95717036	     -2.88724356	     -7.69068252	     21.23536732	     -5.04043727	      0.00000000	      4.88440215	     -4.83041938	      8.86027846	    -61.71590992	     17.12959964	     -2.72197321	      0.00000000	    -27.32462132	      7.73584961	     -8.00336069
      5.86500000	     13.51105190	     -3.75077920	     11.93088785	      0.38659800	      0.93974680	     -0.25737153	    -12.75554017	     11.77482241	     -2.73496661	     -7.40771026	     21.39219523	     -4.84562522	      0.00000000	      5.41651482	     -4.41602717	      8.73929593	    -60.93215063	     17.45248074	     -2.67471394	      0.00000000	    -27.40409464	      7.42031971	     -7.68767112
      5.87000000	     13.48369740	     -3.59251655	     11.61215396	      0.39202609	      0.93994341	     -0.25700990	    -13.28118869	     11.61022105	     -2.59837275	     -7.12629402	     21.55168741	     -4.64337457	      0.00000000	      5.95283540	     -4.03049142	      8.63000092	    -60.08852561	     17.75875420	     -2.60370829	      0.00000000	    -27.46730756	      7.12908867	     -7.37882994
      5.87500000	     13.46433486	     -3.44815006	     11.28425040	      0.39746269	      0.94011302	     -0.25668376	    -13.81046659	     11.45228080	     -2.46341050	     -6.85033677	     21.69814815	     -4.45016671	      0.00000000	      6.45671436	     -3.66734352	      8.51568134	    -59.16616742	     18.03873000	     -2.50950127	      0.00000000	    -27.53137498	      6.86622664	     -7.05979614
      5.88000000	     13.39905191	     -3.33735474	     11.05872300	      0.40287137	      0.94015551	     -0.25642946	    -14.27656485	     11.34630797	     -2.40470963	     -6.56001506	     21.77583358	     -4.33251276	      0.00000000	      7.02818357	     -3.33143073	      8.51445528	    -58.20839772	     18.30262245	     -2.32252429	      0.00000000	    -27.52736143	      6.66025810	     -6.84356668
      5.88500000	     13.43184713	     -3.20818729	     10.63874928	      0.40826649	      0.94029922	     -0.25605512	    -14.85513289	     11.17674238	     -2.18705309	     -6.30051551	     21.95306274	     -4.07513056	      0.00000000	      7.41712547	     -3.01670661	      8.31271370	    -57.13215433	     18.54153628	     -2.26920802	      0.00000000	    -27.67353065	      6.38244992	     -6.41846368
      5.89000000	     13.37630993	     -3.12214003	     10.42672966	      0.41368159	      0.94023779	     -0.25581673	    -15.32816143	     11.09810131	     -2.13078689	     -6.00000496	     22.04010004	     -3.99830355	      0.00000000	      7.94158412	     -2.72852700	      8.32376657	    -56.04568980	     18.76805960	     -2.03284392	      0.00000000	    -27.67274529	      6.20935255	     -6.22719171
      5.89500000	     13.44925145	     -3.01344040	     10.00949132	      0.41907975	      0.94034396	     -0.25547603	    -15.94125798	     10.94611458	     -1.91075872	     -5.74609962	     22.18082738	     -3.78787859	      0.00000000	      8.23847564	     -2.46006394	      8.13809099	    -54.82039424	     18.97286834	     -1.95235315	      0.00000000	    -27.85466152	      5.96801592	     -5.80444306
      5.90000000	     13.40422414	     -2.95048355	      9.79873903	      0.42449518	      0.94019188	     -0.25527033	    -16.41627050	     10.88610120	     -1.84808518	     -5.45540468	     22.27740955	     -3.72877657	      0.00000000	      8.70536689	     -2.21294528	      8.16152540	    -53.60123709	     19.17264964	     -1.69344428	      0.00000000	    -27.86328333	      5.82865205	     -5.62475617
      5.90500000	     13.46536884	     -2.87325209	      9.42383942	      0.42990368	      0.94016776	     -0.25498349	    -17.00560327	     10.76795268	     -1.65512191	     -5.20337384	     22.41789796	     -3.57358133	      0.00000000	      8.97965516	     -1.98919879	      8.03033516	    -52.25528117	     19.36575591	     -1.56771130	      0.00000000	    -28.01839256	      5.63766127	     -5.26980830
      5.91000000	     13.42779047	     -2.84271425	      9.22135915	      0.43530344	      0.93993979	     -0.25483038	    -17.47589541	     10.73577272	     -1.59531335	     -4.92544238	     22.47210716	     -3.52749721	      0.00000000	      9.39262751	     -1.78728862	      8.08636670	    -50.90769941	     19.51063545	     -1.29201368	      0.00000000	    -28.03698319	      5.53991417	     -5.07117876
      5.91500000	     13.55751646	     -2.78124450	      8.83161377	      0.44071540	      0.93992251	     -0.25454048	    -18.13514327	     10.62916513	     -1.36874298	     -4.67828826	     22.56681699	     -3.40654676	      0.00000000	      9.53281280	     -1.61113790	      7.96054989	    -49.41806236	     19.63754647	     -1.16961259	      0.00000000	    -28.27002471	      5.36641501	     -4.67987688
      5.92000000	     13.50598514	     -2.78444167	      8.65690595	      0.44613746	      0.93956280	     -0.25442955	    -18.57587080	     10.63210749	     -1.31863848	     -4.42171436	     22.64538662	     -3.38081798	      0.00000000	      9.91468979	     -1.45433892	      8.06326071	    -47.95386090	     19.77052567	     -0.88413153	      0.00000000	    -28.26253690	      5.31701161	     -4.53151120
      5.92500000	     13.63226937	     -2.74379197	      8.27752129	      0.45157389	      0.93944644	     -0.25416416	    -19.22018980	     10.53847101	     -1.09574949	     -4.19365128	     22.74988470	     -3.27859671	      0.00000000	     10.00260531	     -1.31586075	      7.96554815	    -46.33750129	     19.87735410	     -0.74038428	      0.00000000	    -28.48675799	      5.17473899	     -4.17897524
